# xmcd CD database file
#
# Track frame offsets:
#	150
#	15965
#	34995
#	53610
#	69042
#	88525
#	104850
#	128805
#	153880
#	175512
#	194797
#	214087
#	232850
#	250255
#	266002
#	283247
#	308942
#
# Disc length: 4344 seconds
#
# Revision: 25
# Processed by: cddbd v1.5.2PL0 Copyright (c) Steve Scherf et al.
# Submitted via: CDex 1.70beta2
#
DISCID=e710f611
DTITLE=Celine Dion - Unknown CD for MusicBrainz and FreeDB
DYEAR=2002
DGENRE=Pop
TTITLE0=I'm Alive
TTITLE1=Right In Front Of You
TTITLE2=Have You Ever Been In Love
TTITLE3=Rain, Tax (It's Inevitable)
TTITLE4=A New Day Has Come (Radio Remix)
TTITLE5=Ten Days
TTITLE6=Goodbye's (The Saddest Word)
TTITLE7=Prayer
TTITLE8=I Surrender
TTITLE9=At Last
TTITLE10=Super Love
TTITLE11=Sorry For Love
TTITLE12=Aun Existe Amor
TTITLE13=The Greatest Reward
TTITLE14=When The Wrong One Loves You Right
TTITLE15=A New Day Has Come
TTITLE16=Nature Boy
EXTD=YEAR: 2002
EXTT0=
EXTT1=
EXTT2=
EXTT3=
EXTT4=
EXTT5=
EXTT6=
EXTT7=
EXTT8=
EXTT9=
EXTT10=
EXTT11=
EXTT12=
EXTT13=
EXTT14=
EXTT15=
EXTT16=
PLAYORDER=
